<?xml version="1.0" encoding="UTF-8" standalone="no"?>
<!DOCTYPE svg PUBLIC "-//W3C//DTD SVG 1.1//EN" "http://www.w3.org/Graphics/SVG/1.1/DTD/svg11.dtd">
<svg width="100%" height="100%" viewBox="0 0 888 568" version="1.1" xmlns="http://www.w3.org/2000/svg" xmlns:xlink="http://www.w3.org/1999/xlink" xml:space="preserve" xmlns:serif="http://www.serif.com/" style="fill-rule:evenodd;clip-rule:evenodd;stroke-linejoin:round;stroke-miterlimit:2;">
    <rect x="97.182" y="0" width="420" height="550" style="fill:rgb(230,230,230);"/>
    <rect x="122.182" y="28.5" width="370" height="100" style="fill:white;"/>
    <rect x="261.182" y="162.5" width="230" height="360" style="fill:white;"/>
    <rect x="279.34" y="65.866" width="93.423" height="7.022" style="fill:rgb(230,230,230);"/>
    <rect x="266.84" y="84.112" width="117.573" height="7.022" style="fill:rgb(230,230,230);"/>
    <rect x="325.34" y="245.575" width="93.423" height="7.022" style="fill:rgb(230,230,230);"/>
    <rect x="325.34" y="266.189" width="144.266" height="7.022" style="fill:rgb(108,99,255);"/>
    <rect x="326.84" y="285.821" width="117.573" height="7.022" style="fill:rgb(230,230,230);"/>
    <rect x="325.34" y="307.362" width="68.637" height="7.022" style="fill:rgb(230,230,230);"/>
    <rect x="325.34" y="328.403" width="103.592" height="7.022" style="fill:rgb(108,99,255);"/>
    <rect x="282.759" y="243.366" width="11.44" height="11.44" style="fill:rgb(230,230,230);"/>
    <rect x="282.759" y="263.98" width="11.44" height="11.44" style="fill:rgb(108,99,255);"/>
    <rect x="282.759" y="283.612" width="11.44" height="11.44" style="fill:rgb(230,230,230);"/>
    <rect x="282.759" y="305.153" width="11.44" height="11.44" style="fill:rgb(230,230,230);"/>
    <rect x="282.759" y="326.194" width="11.44" height="11.44" style="fill:rgb(108,99,255);"/>
    <rect x="325.34" y="349.575" width="93.423" height="7.022" style="fill:rgb(230,230,230);"/>
    <rect x="325.34" y="370.189" width="144.266" height="7.022" style="fill:rgb(108,99,255);"/>
    <rect x="326.84" y="389.821" width="117.573" height="7.022" style="fill:rgb(230,230,230);"/>
    <rect x="325.34" y="411.362" width="68.637" height="7.022" style="fill:rgb(230,230,230);"/>
    <rect x="325.34" y="432.403" width="103.592" height="7.022" style="fill:rgb(230,230,230);"/>
    <rect x="282.759" y="347.366" width="11.44" height="11.44" style="fill:rgb(230,230,230);"/>
    <rect x="282.759" y="367.98" width="11.44" height="11.44" style="fill:rgb(108,99,255);"/>
    <rect x="282.759" y="387.612" width="11.44" height="11.44" style="fill:rgb(230,230,230);"/>
    <rect x="282.759" y="409.153" width="11.44" height="11.44" style="fill:rgb(230,230,230);"/>
    <rect x="282.759" y="430.194" width="11.44" height="11.44" style="fill:rgb(230,230,230);"/>
    <g transform="matrix(1,0,0,1,-156,-166.331)">
        <path d="M339.065,215.102C322.757,215.102 309.336,228.522 309.336,244.831C309.336,261.14 322.757,274.56 339.065,274.56C355.374,274.56 368.794,261.14 368.794,244.831C368.747,228.541 355.356,215.15 339.065,215.102ZM339.065,224.021C339.065,224.021 339.065,224.021 339.065,224.021C343.958,224.021 347.984,228.047 347.984,232.94C347.984,237.832 343.958,241.858 339.065,241.858C334.173,241.858 330.147,237.832 330.147,232.94C330.163,228.053 334.179,224.037 339.065,224.021ZM339.065,266.957C331.919,266.924 325.233,263.356 321.228,257.438C321.371,251.492 333.12,248.219 339.065,248.219C345.011,248.219 356.76,251.492 356.903,257.438C352.893,263.351 346.21,266.918 339.065,266.957Z" style="fill:rgb(108,99,255);fill-rule:nonzero;"/>
    </g>
    <g transform="matrix(1,0,0,1,-156,-166.331)">
        <path d="M872.929,335.176C872.929,335.176 883.079,356.604 889.846,358.86L870.673,388.183L854.884,369.01C854.884,369.01 856.012,355.477 852.629,349.838C849.245,344.199 872.929,335.176 872.929,335.176Z" style="fill:rgb(251,190,190);fill-rule:nonzero;"/>
    </g>
    <circle cx="701.14" cy="166.589" r="21.428" style="fill:rgb(251,190,190);"/>
    <path d="M671.817,319.97L677.456,335.759L684.223,327.864L678.544,309.88L671.817,319.97Z" style="fill:rgb(251,190,190);fill-rule:nonzero;"/>
    <g transform="matrix(1,0,0,1,-156,-166.331)">
        <path d="M843.606,478.406C843.606,478.406 836.84,506.601 840.223,520.135C843.606,533.668 853.756,626.148 853.756,626.148L860.523,699.454L887.59,701.71L884.207,615.998L887.59,541.563L906.763,613.742L906.763,701.71L939.469,702.838L936.086,588.93C936.086,588.93 938.341,500.962 923.68,489.684C909.018,478.406 906.763,476.151 906.763,476.151L843.606,478.406Z" style="fill:rgb(47,46,65);fill-rule:nonzero;"/>
    </g>
    <g transform="matrix(1,0,0,1,-156,-166.331)">
        <path d="M866.162,698.327L863.907,706.221L860.523,716.371C860.523,716.371 850.373,736.672 867.29,733.288C884.207,729.905 881.951,722.01 881.951,722.01C881.951,722.01 887.59,718.627 886.463,717.499C885.335,716.371 885.335,699.454 885.335,699.454L866.162,698.327Z" style="fill:rgb(47,46,65);fill-rule:nonzero;"/>
    </g>
    <g transform="matrix(1,0,0,1,-156,-166.331)">
        <path d="M931.574,698.327L933.83,706.221L937.213,716.371C937.213,716.371 947.364,736.672 930.447,733.288C913.53,729.905 915.785,722.01 915.785,722.01C915.785,722.01 910.146,718.627 911.274,717.499C912.402,716.371 912.402,699.454 912.402,699.454L931.574,698.327Z" style="fill:rgb(47,46,65);fill-rule:nonzero;"/>
    </g>
    <g transform="matrix(1,0,0,1,-156,-166.331)">
        <path d="M870.673,374.649L884.467,354.349L910.146,367.882L913.53,485.173C913.53,485.173 898.868,476.151 876.312,487.429C853.756,498.707 839.095,490.812 839.095,490.812L852.629,440.061L846.99,372.394L855.055,365.073L870.673,374.649Z" style="fill:rgb(230,230,230);fill-rule:nonzero;"/>
    </g>
    <g transform="matrix(1,0,0,1,-156,-166.331)">
        <path d="M855.058,362.938L850.373,366.755C850.373,366.755 821.05,381.416 819.923,391.566L840.223,446.828C840.223,446.828 845.862,459.234 841.351,463.745C836.839,468.256 832.328,479.534 833.456,485.173C834.584,490.812 826.689,514.496 835.712,514.496C844.734,514.496 866.162,460.362 865.034,438.933C863.907,417.505 863.126,361.378 855.058,362.938Z" style="fill:rgb(47,46,65);fill-rule:nonzero;"/>
    </g>
    <g transform="matrix(1,0,0,1,-156,-166.331)">
        <path d="M830.073,384.799L823.121,385.543C823.121,385.543 816.539,390.438 816.539,401.716C816.539,412.994 815.411,446.828 815.411,446.828C815.411,446.828 813.156,463.745 819.923,476.151C826.689,488.557 827.817,491.94 827.817,491.94L839.095,478.406L839.095,450.211L843.606,432.167L830.073,384.799Z" style="fill:rgb(47,46,65);fill-rule:nonzero;"/>
    </g>
    <g transform="matrix(1,0,0,1,-156,-166.331)">
        <path d="M881.076,349.709L892.102,354.349C892.102,354.349 930.447,364.499 936.086,381.416L920.296,420.889C920.296,420.889 931.574,493.068 928.191,493.068L924.808,493.068C924.808,493.068 933.83,499.834 928.191,502.09C922.552,504.346 909.018,522.39 905.635,514.496C902.252,506.601 881.951,412.994 884.207,392.694C886.463,372.393 879.073,351.836 881.076,349.709Z" style="fill:rgb(47,46,65);fill-rule:nonzero;"/>
    </g>
    <g transform="matrix(1,0,0,1,-156,-166.331)">
        <path d="M865.598,305.29L865.598,303.034L859.959,303.034C859.959,303.034 850.937,297.395 843.042,304.162C835.148,310.929 831.764,314.312 831.764,314.312L828.381,318.823L831.764,319.951L828.381,323.334L831.764,323.334L829.509,326.718L835.83,335.176C835.83,335.176 835.148,326.718 841.914,326.718C848.681,326.718 856.576,317.695 856.576,317.695L873.493,330.101C873.493,330.101 872.365,323.366 876.312,323.35C876.312,323.35 878.004,306.417 865.598,305.29Z" style="fill:rgb(47,46,65);fill-rule:nonzero;"/>
    </g>
    <g transform="matrix(1,0,0,1,-156,-166.331)">
        <path d="M943.98,486.301L941.725,509.985C941.725,509.985 941.725,544.946 929.319,541.563C916.913,538.18 927.063,508.857 927.063,508.857L928.777,487.648L943.98,486.301Z" style="fill:rgb(251,190,190);fill-rule:nonzero;"/>
    </g>
    <g transform="matrix(1,0,0,1,-156,-166.331)">
        <path d="M919.169,375.777C919.169,375.777 933.83,370.138 938.341,387.055C942.852,403.972 948.491,437.806 948.491,437.806C953.203,449.76 953.203,463.069 948.491,475.023L945.108,491.94L925.935,489.684L921.424,451.339L916.913,402.844L919.169,375.777Z" style="fill:rgb(47,46,65);fill-rule:nonzero;"/>
    </g>
</svg>
